<?xml version="1.0" encoding="utf-8"?>
<!-- Generator: Adobe Illustrator 16.0.0, SVG Export Plug-In . SVG Version: 6.00 Build 0)  -->
<!DOCTYPE svg PUBLIC "-//W3C//DTD SVG 1.1//EN" "http://www.w3.org/Graphics/SVG/1.1/DTD/svg11.dtd">
<svg version="1.1" id="Layer_1" xmlns="http://www.w3.org/2000/svg" xmlns:xlink="http://www.w3.org/1999/xlink" x="0px" y="0px"
	 width="1366px" height="768px" viewBox="0 0 1366 768" enable-background="new 0 0 1366 768" xml:space="preserve">
<g id="Layer_1_1_">
	<rect fill="#E7F2DC" width="1366" height="768"/>
	<ellipse fill="#FFFFFF" cx="110.358" cy="86.014" rx="46.499" ry="44.999"/>
	<path fill="#FFFFFF" d="M66.572,159.844c-2.078-4.678-6.351-8.167-12.533-7.799c-2.572,0.153-5.103,0.44-7.608,0.825
		c-0.214-0.011-0.427-0.013-0.643-0.033c-5.767-8.393-15.021-10.781-24.847-10.851c-0.419-0.59-0.851-1.17-1.301-1.728
		c-5.7-7.055-14.056-10.275-22.831-8.955c-11.384,1.712-15.255,13.831-16.551,23.661c-0.488,3.697,1.091,7.116,3.614,9.721
		c-3.477,1.68-6.24,4.721-7.399,9.02c-1.96,7.254,2.346,16.385,10.006,17.952c12,2.453,23.43,1.238,35.19-1.934
		c0.479-0.128,0.956-0.275,1.434-0.412c0.863,0.415,1.79,0.719,2.773,0.886c9.529,1.623,19.262,2.045,28.909,1.726
		c10.639-0.354,22.402-1.602,28.816-11.35C91.804,168.104,77.799,156.343,66.572,159.844z"/>
	<path fill="#FFFFFF" d="M337.693,89.78c-2.71-0.392-5.241-0.688-7.855-0.691c-0.999-1.251-2.212-2.431-3.705-3.48
		c-9.778-6.869-21.979-5.744-31.743-0.424c-4.4,0.258-8.804,0.466-13.21,0.619c-0.097-0.001-0.193-0.002-0.29-0.003
		c-0.339-3.683-2.328-7.194-5.629-9.817c-7.364-5.849-20.196-6.093-27.517,0c-1.604,1.335-3.271,3.02-4.5,4.825
		c-0.718-0.06-1.442-0.093-2.172-0.079c-0.38,0.006-0.737,0.024-1.098,0.039c-2.537-0.2-4.287-0.047-8.118,0.377
		c-3.902,0.432-6.954,2.443-9.865,4.323c-2.383,1.539-3.747,3.613-4.893,5.777c-7.152,4.01-11.593,10.762-9.709,19.191
		c2.108,9.44,17.731,14.496,28.344,14.644c3.034,0.041,6-0.187,8.939-0.54c6.809,2.014,13.512,4.492,20.592,5.659
		c11.117,1.829,21.262,0.57,28.604-3.73c0.591,0.111,1.182,0.225,1.772,0.335c7.23,1.337,14.701,2.346,22.123,2.537
		c19.155,0.496,33.212-9.591,34.213-24.66C352.399,98.314,345.789,90.949,337.693,89.78z"/>
	<path fill="#FFFFFF" d="M1257.146,89.78c-2.711-0.392-5.241-0.688-7.855-0.691c-0.999-1.251-2.212-2.431-3.705-3.48
		c-9.777-6.869-21.979-5.744-31.743-0.424c-4.399,0.258-8.804,0.466-13.21,0.619c-0.097-0.001-0.192-0.002-0.29-0.003
		c-0.339-3.683-2.328-7.194-5.629-9.817c-7.364-5.849-20.196-6.093-27.517,0c-1.604,1.335-3.271,3.02-4.5,4.825
		c-0.719-0.06-1.442-0.093-2.172-0.079c-0.381,0.006-0.737,0.024-1.099,0.039c-2.537-0.2-4.287-0.047-8.118,0.377
		c-3.901,0.432-6.953,2.443-9.864,4.323c-2.384,1.539-3.747,3.613-4.894,5.777c-7.151,4.01-11.593,10.762-9.709,19.191
		c2.108,9.44,17.731,14.496,28.344,14.644c3.034,0.041,6-0.187,8.939-0.54c6.809,2.014,13.512,4.492,20.592,5.659
		c11.117,1.829,21.262,0.57,28.604-3.73c0.591,0.111,1.182,0.225,1.771,0.335c7.23,1.337,14.701,2.346,22.123,2.537
		c19.155,0.496,33.212-9.591,34.213-24.66C1271.854,98.314,1265.242,90.949,1257.146,89.78z"/>
	<path fill="#FFFFFF" d="M1402.187,40.78c-2.711-0.392-5.241-0.688-7.855-0.691c-0.999-1.251-2.212-2.431-3.705-3.48
		c-9.777-6.869-21.979-5.744-31.743-0.424c-4.399,0.258-8.804,0.466-13.21,0.619c-0.097-0.001-0.192-0.002-0.29-0.003
		c-0.339-3.683-2.328-7.194-5.629-9.817c-7.364-5.849-20.196-6.093-27.517,0c-1.604,1.335-3.271,3.02-4.5,4.825
		c-0.719-0.06-1.442-0.093-2.172-0.079c-0.381,0.006-0.737,0.024-1.099,0.039c-2.537-0.2-4.287-0.047-8.118,0.377
		c-3.901,0.432-6.953,2.443-9.864,4.323c-2.384,1.539-3.747,3.613-4.894,5.777c-7.151,4.01-11.593,10.762-9.709,19.191
		c2.108,9.44,17.731,14.496,28.344,14.644c3.034,0.041,6-0.187,8.939-0.54c6.809,2.014,13.512,4.492,20.592,5.659
		c11.117,1.829,21.262,0.57,28.604-3.73c0.591,0.111,1.182,0.225,1.771,0.335c7.23,1.337,14.701,2.346,22.123,2.537
		c19.155,0.496,33.212-9.591,34.213-24.66C1416.894,49.314,1410.282,41.949,1402.187,40.78z"/>
	<path fill="#84987A" d="M1265.905,503.98c-17.111,0-33.771,2.601-49.789,7.485c-3.761,0.113-7.265,1.404-10.451,3.326
		c-3.31,0.791-7.854,1.971-10.156,4.354c-90.112,39.984-155.19,154.625-155.19,289.834c0,168.447,100.998,305,225.588,305
		c124.584,0,225.578-136.553,225.578-305C1491.484,640.532,1390.489,503.98,1265.905,503.98z"/>
	<path fill="#BEDEAE" d="M1034.046,567.476c-19.112,0-37.718,2.602-55.61,7.486c-4.199,0.113-8.111,1.404-11.672,3.326
		c-3.694,0.791-8.771,1.971-11.344,4.354c-100.646,39.985-173.334,154.625-173.334,289.835c0,168.447,112.805,305,251.96,305
		c139.148,0,251.949-136.553,251.949-305C1285.995,704.028,1173.194,567.476,1034.046,567.476z"/>
	<path fill="#46563C" d="M1279.971,493.548c-2.592-4.832-5.442-9.503-8.372-14.131c0.031,0.004,0.063,0.008,0.096,0.012
		c1.997,1.109,3.983,2.239,5.92,3.459c2.247,1.417,5.452-0.994,3.595-3.414c-3.296-4.298-4.608-9.232-4.605-14.486
		c1.448,0.661,2.889,1.347,4.33,1.986c2.151,0.958,3.885-1.201,3.33-3.2c-1.731-6.249-3.941-12.333-4.428-18.849
		c-0.027-0.374-0.144-0.705-0.318-0.993c0.953-2.432-2.466-4.917-4.222-2.522c-4.518,6.153-10.775,11.225-16.592,16.104
		c-1.713,1.437-0.896,5.15,1.763,4.503c2.122-0.515,4.17-0.555,6.17-0.297c-4.206,4.396-8.674,8.546-13.828,11.771
		c-1.754,1.096-1.082,4.458,1.114,4.495c2.491,0.044,4.972,0.188,7.446,0.38c-3.64,4.676-8.676,8.482-13.542,11.502
		c-1.984,1.229-0.878,4.115,1.115,4.495c3.786,0.725,7.609,1.35,11.451,1.789c-0.192,2.146-0.701,4.334-0.119,6.436
		c0.853,3.072,4.866,3.056,7.354,2.947c0.843-0.035,1.69-0.716,1.999-1.479c0.926-2.29,1.202-4.801,1.191-7.268
		c1.251-0.001,2.502-0.022,3.752-0.087c0.898,0.101,1.804,0.186,2.715,0.235C1278.938,497.024,1280.946,495.367,1279.971,493.548z"
		/>
	<path fill="#46563C" d="M1242.007,494.594c0.62-0.936,0.575-2.262-0.468-3.274c-2.829-2.757-5.089-6.029-7.896-8.811
		c2.061-0.001,4.122,0.068,6.193,0.229c1.863,0.146,3.373-1.541,2.686-3.387c-1.383-3.706-2.509-7.468-4.134-11.06
		c0.786,0.209,1.569,0.448,2.349,0.748c1.998,0.771,4.15-1.102,3.33-3.201c-1.979-5.065-3.933-10.124-5.27-15.402
		c-0.153-0.605-0.513-1.018-0.965-1.267c0.252-2.733-3.829-4.354-4.686-1.458c-1.854,6.275-5.974,11.457-10.86,15.701
		c-1.812,1.573-0.886,4.821,1.763,4.504c1.511-0.181,3.018-0.328,4.521-0.416c-2.672,4.18-5.551,8.211-9.1,11.705
		c-1.632,1.604,0.228,4.3,2.232,4.057c1.774-0.214,3.551-0.382,5.324-0.509c-3.425,4.815-8.186,8.406-12.982,11.981
		c-2.299,1.711-0.285,5.341,2.382,4.349c3.639-1.354,7.316-2.255,11.048-2.793c-0.289,2.771-0.468,5.558-0.576,8.353
		c-0.083,2.136,2.032,3.665,3.947,2.378c4.425-2.973,4.463-6.497,4.139-11.325c0.838-0.017,1.676-0.021,2.52-0.01
		c0.162,0.145,0.33,0.28,0.487,0.434C1239.48,497.571,1241.619,496.261,1242.007,494.594z"/>
	<path fill="#5C6D52" d="M1315.529,497.095c-1.458-3.529-3.203-6.928-4.751-10.416c0.245,0.023,0.489,0.047,0.734,0.068
		c0.35,0.421,0.688,0.851,0.99,1.306c0.28,0.489,0.56,0.979,0.853,1.462c1.47,2.415,5.679,0.122,4.349-2.383
		c-0.103-0.189-0.217-0.368-0.329-0.55c0.008-0.003,0.016-0.008,0.021-0.012c-0.174-0.285-0.334-0.579-0.504-0.866
		c0.239-0.423,0.371-0.927,0.336-1.503c-0.302-4.914-0.901-9.802-1.204-14.715c-0.023-0.419-0.149-0.781-0.345-1.083
		c0.687-2.102-1.684-4.637-3.725-2.88c-5.827,5.006-11.062,10.798-16.216,16.479c-1.533,1.688,0.159,4.256,2.233,4.059
		c1.662-0.159,3.315-0.155,4.965-0.079c-2.969,2.714-6.241,5.032-10.062,6.663c-2.198,0.938-2.041,4.555,0.556,4.802
		c2.435,0.232,4.862,0.501,7.282,0.824c-0.868,2.759-1.336,5.536-1.611,8.481c-0.104,1.116,0.415,2.187,1.473,2.648l1.833,0.801
		c1.521,0.665,3.198-0.338,3.476-1.935c0.365-2.095,0.728-4.175,1.015-6.259c0.306-0.508,0.628-1,0.962-1.479
		c0.396-0.17,0.755-0.505,1.01-0.914c1.327,0.263,2.653,0.546,3.974,0.862C1314.699,500.926,1316.203,498.724,1315.529,497.095z"/>
</g>
<g id="Layer_2">
	<path fill="#6A7265" d="M1270.983,534.477c-1.423-2.003-3.024-3.66-4.725-4.849c0.02-0.035,0.039-0.069,0.059-0.104
		c2.053-3.937-1.282-8.362-5.646-7.346c-0.462,0.107-0.918,0.227-1.371,0.351c-0.755-1.223-2.061-2.031-3.967-1.862
		c-0.158,0.014-0.298,0.042-0.451,0.06c-0.76-0.552-1.728-0.845-2.882-0.726c-0.739,0.113-1.48,0.154-2.227,0.146
		c-0.028-0.139-0.062-0.293-0.107-0.479c-0.173-2.83-2.148-4.854-5-5c-0.975-0.05-1.944-0.164-2.912-0.283
		c-1.121-1.009-2.67-1.486-4.417-0.871c-0.84,0.446-1.729,0.608-2.671,0.488c-6.44,0.119-6.452,10.119,0,10
		c0.793-0.015,1.561-0.068,2.318-0.162c0.325,0.081,0.661,0.145,1.016,0.162c0.904,0.046,1.804,0.149,2.702,0.259
		c1.14,2.641,3.157,4.444,5.854,5.284c0.2,0.418,0.442,0.808,0.729,1.15c-0.107,2.69,1.728,5.223,4.358,5.367
		c0.933,3.266,5.766,5.562,8.558,2.475c0.269-0.296,0.508-0.609,0.764-0.912c-0.025,0.4,0.979,1.329,1.384,1.9
		C1266.049,544.734,1274.727,539.747,1270.983,534.477z"/>
	<path fill="#6A7265" d="M1309.535,532.131c-0.807-0.833-1.689-1.55-2.611-2.205c-0.101-1.561-0.885-3.021-2.399-3.91
		c-1.138-0.665-2.568-0.813-3.865-0.485c0.108-0.225,0.216-0.447,0.325-0.673c2.064-4.246-1.275-7.937-5.646-7.346
		c-0.816,0.11-1.633,0.225-2.449,0.329c1.71-2.102,2.039-4.984-0.02-7.043c-1.785-1.786-5.339-2.108-7.07,0
		c-0.507,0.617-1.044,1.23-1.604,1.828c-1.967-4.595-7.221-6.495-12.86-5.96c-6.36,0.604-6.421,10.609,0,10
		c1.119-0.106,2.312-0.281,3.438-0.104c0.309,0.049,0.443-0.008,0.486-0.035c-0.053,0.057-0.21,0.477-0.257,1.307
		c-0.021,0.377,0.015,0.747,0.088,1.106c-1.178,1.202-1.746,2.89-1.242,4.723c0.681,2.477,3.584,4.414,6.149,3.492
		c1.015-0.364,1.991-0.803,2.946-1.279c0.395,0.268,0.765,0.504,1.059,0.733V535c0,4.209,5.711,6.825,8.701,3.535
		c0.379-0.416,0.744-0.844,1.104-1.276c-0.542,2.554,0.978,5.192,3.532,5.896c2.501,0.688,5.186-0.742,6.028-3.175
		C1307.822,542.892,1313.719,536.45,1309.535,532.131z"/>
	<path fill="#6A7265" d="M1335.65,526.477c-0.689-1.457-1.746-2.23-2.899-2.483c-5.771-3.605-11.558-7.058-18.089-9.147
		c-6.159-1.973-8.774,7.686-2.658,9.644c1.821,0.583,3.569,1.316,5.276,2.133c-0.438,1.835,0.118,3.928,2.196,5.363
		c3.428,2.368,6.432,5.254,9.653,7.885c2.603,2.126,7.643,1.867,8.356-2.206C1338.223,533.476,1337.451,530.279,1335.65,526.477z"/>
</g>
</svg>
